<mxfile host="app.diagrams.net" modified="2021-05-18T00:56:15.259Z" agent="5.0 (Windows NT 10.0; Win64; x64) AppleWebKit/537.36 (KHTML, like Gecko) Chrome/90.0.4430.212 Safari/537.36" etag="BEQI8QTlphy58lSHngty" version="14.6.13" type="github" pages="2">
  <diagram id="HT_so26xPr5uc5SyStNZ" name="Page-1">
    <mxGraphModel dx="857" dy="1561" grid="1" gridSize="10" guides="1" tooltips="1" connect="1" arrows="1" fold="1" page="1" pageScale="1" pageWidth="1600" pageHeight="900" math="0" shadow="0">
      <root>
        <mxCell id="0" />
        <mxCell id="1" parent="0" />
        <mxCell id="uh_dUDV7xCnsIEdqAogF-1" value="board" style="whiteSpace=wrap;html=1;aspect=fixed;" vertex="1" parent="1">
          <mxGeometry x="770" y="320" width="80" height="80" as="geometry" />
        </mxCell>
        <mxCell id="uh_dUDV7xCnsIEdqAogF-4" value="userVO" style="rhombus;whiteSpace=wrap;html=1;rounded=0;sketch=0;" vertex="1" parent="1">
          <mxGeometry x="120" y="320" width="80" height="80" as="geometry" />
        </mxCell>
        <mxCell id="uh_dUDV7xCnsIEdqAogF-5" value="Board&lt;br&gt;servlet" style="ellipse;whiteSpace=wrap;html=1;aspect=fixed;rounded=0;sketch=0;" vertex="1" parent="1">
          <mxGeometry x="620" y="240" width="60" height="60" as="geometry" />
        </mxCell>
        <mxCell id="uh_dUDV7xCnsIEdqAogF-6" value="MOD&lt;br&gt;servlet" style="ellipse;whiteSpace=wrap;html=1;aspect=fixed;rounded=0;sketch=0;" vertex="1" parent="1">
          <mxGeometry x="660" y="330" width="60" height="60" as="geometry" />
        </mxCell>
        <mxCell id="uh_dUDV7xCnsIEdqAogF-7" value="DEL&lt;br&gt;servlet" style="ellipse;whiteSpace=wrap;html=1;aspect=fixed;rounded=0;sketch=0;" vertex="1" parent="1">
          <mxGeometry x="660" y="420" width="60" height="60" as="geometry" />
        </mxCell>
        <mxCell id="uh_dUDV7xCnsIEdqAogF-9" value="Longin&lt;br&gt;servlet" style="ellipse;whiteSpace=wrap;html=1;aspect=fixed;rounded=0;sketch=0;" vertex="1" parent="1">
          <mxGeometry x="310" y="300" width="60" height="60" as="geometry" />
        </mxCell>
        <mxCell id="uh_dUDV7xCnsIEdqAogF-10" value="Logout&lt;br&gt;servlet" style="ellipse;whiteSpace=wrap;html=1;aspect=fixed;rounded=0;sketch=0;" vertex="1" parent="1">
          <mxGeometry x="130" y="450" width="60" height="60" as="geometry" />
        </mxCell>
        <mxCell id="uh_dUDV7xCnsIEdqAogF-11" value="Join&lt;br&gt;servlet" style="ellipse;whiteSpace=wrap;html=1;aspect=fixed;rounded=0;sketch=0;" vertex="1" parent="1">
          <mxGeometry x="290" y="200" width="60" height="60" as="geometry" />
        </mxCell>
        <mxCell id="uh_dUDV7xCnsIEdqAogF-12" value="User.DB" style="shape=hexagon;perimeter=hexagonPerimeter2;whiteSpace=wrap;html=1;fixedSize=1;rounded=0;sketch=0;" vertex="1" parent="1">
          <mxGeometry x="470" y="220" width="120" height="80" as="geometry" />
        </mxCell>
        <mxCell id="uh_dUDV7xCnsIEdqAogF-15" value="" style="endArrow=classic;startArrow=classic;html=1;entryX=0;entryY=0.5;entryDx=0;entryDy=0;exitX=1;exitY=0.5;exitDx=0;exitDy=0;" edge="1" parent="1" source="uh_dUDV7xCnsIEdqAogF-9" target="uh_dUDV7xCnsIEdqAogF-12">
          <mxGeometry width="50" height="50" relative="1" as="geometry">
            <mxPoint x="450" y="360" as="sourcePoint" />
            <mxPoint x="500" y="310" as="targetPoint" />
          </mxGeometry>
        </mxCell>
        <mxCell id="uh_dUDV7xCnsIEdqAogF-16" value="ID, PW(BCrypt.checkpw()" style="edgeLabel;html=1;align=center;verticalAlign=middle;resizable=0;points=[];rotation=-35;" vertex="1" connectable="0" parent="uh_dUDV7xCnsIEdqAogF-15">
          <mxGeometry x="-0.1738" y="3" relative="1" as="geometry">
            <mxPoint x="17" y="13" as="offset" />
          </mxGeometry>
        </mxCell>
        <mxCell id="uh_dUDV7xCnsIEdqAogF-20" value="hs.setAttribute(&quot;Loginuser&quot;)" style="edgeLabel;html=1;align=center;verticalAlign=middle;resizable=0;points=[];rotation=-15;" vertex="1" connectable="0" parent="uh_dUDV7xCnsIEdqAogF-15">
          <mxGeometry x="-0.1738" y="3" relative="1" as="geometry">
            <mxPoint x="-150" y="72" as="offset" />
          </mxGeometry>
        </mxCell>
        <mxCell id="uh_dUDV7xCnsIEdqAogF-18" value="" style="endArrow=classic;startArrow=classic;html=1;entryX=0;entryY=0.5;entryDx=0;entryDy=0;exitX=1;exitY=0.5;exitDx=0;exitDy=0;" edge="1" parent="1" source="uh_dUDV7xCnsIEdqAogF-4" target="uh_dUDV7xCnsIEdqAogF-9">
          <mxGeometry width="50" height="50" relative="1" as="geometry">
            <mxPoint x="270" y="350" as="sourcePoint" />
            <mxPoint x="620" y="410" as="targetPoint" />
          </mxGeometry>
        </mxCell>
        <mxCell id="uh_dUDV7xCnsIEdqAogF-21" value="" style="endArrow=classic;html=1;entryX=0;entryY=0.5;entryDx=0;entryDy=0;exitX=1;exitY=0;exitDx=0;exitDy=0;" edge="1" parent="1" source="uh_dUDV7xCnsIEdqAogF-4" target="uh_dUDV7xCnsIEdqAogF-11">
          <mxGeometry width="50" height="50" relative="1" as="geometry">
            <mxPoint x="390" y="460" as="sourcePoint" />
            <mxPoint x="440" y="410" as="targetPoint" />
          </mxGeometry>
        </mxCell>
        <mxCell id="uh_dUDV7xCnsIEdqAogF-24" value="&amp;lt;.inout ID,PW(BCrypt),nm&amp;gt;" style="edgeLabel;html=1;align=center;verticalAlign=middle;resizable=0;points=[];rotation=0;" vertex="1" connectable="0" parent="uh_dUDV7xCnsIEdqAogF-21">
          <mxGeometry x="-0.1165" y="1" relative="1" as="geometry">
            <mxPoint x="-38" y="-51" as="offset" />
          </mxGeometry>
        </mxCell>
        <mxCell id="uh_dUDV7xCnsIEdqAogF-25" value="" style="endArrow=classic;startArrow=classic;html=1;exitX=0.5;exitY=0;exitDx=0;exitDy=0;" edge="1" parent="1" source="uh_dUDV7xCnsIEdqAogF-10">
          <mxGeometry width="50" height="50" relative="1" as="geometry">
            <mxPoint x="390" y="460" as="sourcePoint" />
            <mxPoint x="160" y="400" as="targetPoint" />
          </mxGeometry>
        </mxCell>
        <mxCell id="uh_dUDV7xCnsIEdqAogF-26" value="" style="endArrow=classic;html=1;entryX=0.15;entryY=0.06;entryDx=0;entryDy=0;entryPerimeter=0;exitX=1;exitY=0.5;exitDx=0;exitDy=0;" edge="1" parent="1" source="uh_dUDV7xCnsIEdqAogF-11" target="uh_dUDV7xCnsIEdqAogF-12">
          <mxGeometry width="50" height="50" relative="1" as="geometry">
            <mxPoint x="390" y="460" as="sourcePoint" />
            <mxPoint x="440" y="410" as="targetPoint" />
          </mxGeometry>
        </mxCell>
        <mxCell id="uh_dUDV7xCnsIEdqAogF-28" value="VO.setID,PW(BCrypt),nm" style="edgeLabel;html=1;align=center;verticalAlign=middle;resizable=0;points=[];rotation=0;" vertex="1" connectable="0" parent="uh_dUDV7xCnsIEdqAogF-26">
          <mxGeometry x="0.5292" y="1" relative="1" as="geometry">
            <mxPoint x="-36" y="-15" as="offset" />
          </mxGeometry>
        </mxCell>
        <mxCell id="uh_dUDV7xCnsIEdqAogF-29" value="" style="endArrow=classic;html=1;entryX=0;entryY=1;entryDx=0;entryDy=0;" edge="1" parent="1" source="uh_dUDV7xCnsIEdqAogF-39" target="uh_dUDV7xCnsIEdqAogF-5">
          <mxGeometry width="50" height="50" relative="1" as="geometry">
            <mxPoint x="710" y="460" as="sourcePoint" />
            <mxPoint x="760" y="410" as="targetPoint" />
          </mxGeometry>
        </mxCell>
        <mxCell id="uh_dUDV7xCnsIEdqAogF-30" value="" style="endArrow=classic;html=1;entryX=0;entryY=0;entryDx=0;entryDy=0;exitX=1;exitY=1;exitDx=0;exitDy=0;" edge="1" parent="1" source="uh_dUDV7xCnsIEdqAogF-5" target="uh_dUDV7xCnsIEdqAogF-1">
          <mxGeometry width="50" height="50" relative="1" as="geometry">
            <mxPoint x="710" y="460" as="sourcePoint" />
            <mxPoint x="760" y="410" as="targetPoint" />
          </mxGeometry>
        </mxCell>
        <mxCell id="uh_dUDV7xCnsIEdqAogF-31" value="ArrayList" style="edgeLabel;html=1;align=center;verticalAlign=middle;resizable=0;points=[];rotation=15;" vertex="1" connectable="0" parent="uh_dUDV7xCnsIEdqAogF-30">
          <mxGeometry x="0.5337" relative="1" as="geometry">
            <mxPoint x="-21" y="-23" as="offset" />
          </mxGeometry>
        </mxCell>
        <mxCell id="uh_dUDV7xCnsIEdqAogF-32" value="" style="endArrow=classic;html=1;entryX=1;entryY=0.5;entryDx=0;entryDy=0;exitX=0;exitY=0.5;exitDx=0;exitDy=0;" edge="1" parent="1" source="uh_dUDV7xCnsIEdqAogF-1" target="uh_dUDV7xCnsIEdqAogF-6">
          <mxGeometry width="50" height="50" relative="1" as="geometry">
            <mxPoint x="710" y="460" as="sourcePoint" />
            <mxPoint x="760" y="410" as="targetPoint" />
          </mxGeometry>
        </mxCell>
        <mxCell id="uh_dUDV7xCnsIEdqAogF-33" value="" style="endArrow=classic;html=1;entryX=1;entryY=0.5;entryDx=0;entryDy=0;exitX=0;exitY=0.5;exitDx=0;exitDy=0;" edge="1" parent="1" source="uh_dUDV7xCnsIEdqAogF-6" target="uh_dUDV7xCnsIEdqAogF-39">
          <mxGeometry width="50" height="50" relative="1" as="geometry">
            <mxPoint x="710" y="460" as="sourcePoint" />
            <mxPoint x="760" y="410" as="targetPoint" />
          </mxGeometry>
        </mxCell>
        <mxCell id="uh_dUDV7xCnsIEdqAogF-35" value="VO.setID,PW(BCrypt),nm" style="edgeLabel;html=1;align=center;verticalAlign=middle;resizable=0;points=[];rotation=0;" vertex="1" connectable="0" parent="1">
          <mxGeometry x="680.0035960370384" y="399.9978016245212" as="geometry">
            <mxPoint x="3.8637033051562732" y="-1.035276180410083" as="offset" />
          </mxGeometry>
        </mxCell>
        <mxCell id="uh_dUDV7xCnsIEdqAogF-36" value="" style="endArrow=classic;html=1;entryX=0.865;entryY=0.987;entryDx=0;entryDy=0;entryPerimeter=0;exitX=0;exitY=0.5;exitDx=0;exitDy=0;" edge="1" parent="1" source="uh_dUDV7xCnsIEdqAogF-7" target="uh_dUDV7xCnsIEdqAogF-39">
          <mxGeometry width="50" height="50" relative="1" as="geometry">
            <mxPoint x="710" y="460" as="sourcePoint" />
            <mxPoint x="760" y="410" as="targetPoint" />
          </mxGeometry>
        </mxCell>
        <mxCell id="uh_dUDV7xCnsIEdqAogF-37" value="" style="endArrow=classic;html=1;entryX=1;entryY=0.5;entryDx=0;entryDy=0;exitX=0;exitY=1;exitDx=0;exitDy=0;" edge="1" parent="1" source="uh_dUDV7xCnsIEdqAogF-1" target="uh_dUDV7xCnsIEdqAogF-7">
          <mxGeometry width="50" height="50" relative="1" as="geometry">
            <mxPoint x="770" y="500" as="sourcePoint" />
            <mxPoint x="900" y="500" as="targetPoint" />
          </mxGeometry>
        </mxCell>
        <mxCell id="uh_dUDV7xCnsIEdqAogF-38" value="Delet table where iboard =?&amp;nbsp;" style="text;html=1;align=center;verticalAlign=middle;resizable=0;points=[];autosize=1;strokeColor=none;" vertex="1" parent="1">
          <mxGeometry x="605" y="490" width="170" height="20" as="geometry" />
        </mxCell>
        <mxCell id="uh_dUDV7xCnsIEdqAogF-39" value="Board.DB" style="shape=hexagon;perimeter=hexagonPerimeter2;whiteSpace=wrap;html=1;fixedSize=1;rounded=0;sketch=0;" vertex="1" parent="1">
          <mxGeometry x="470" y="340" width="120" height="80" as="geometry" />
        </mxCell>
        <mxCell id="uh_dUDV7xCnsIEdqAogF-40" value="Cmt.DB" style="shape=hexagon;perimeter=hexagonPerimeter2;whiteSpace=wrap;html=1;fixedSize=1;rounded=0;sketch=0;" vertex="1" parent="1">
          <mxGeometry x="470" y="450" width="120" height="80" as="geometry" />
        </mxCell>
        <mxCell id="uh_dUDV7xCnsIEdqAogF-52" value="CMT" style="triangle;whiteSpace=wrap;html=1;rounded=0;sketch=0;" vertex="1" parent="1">
          <mxGeometry x="770" y="160" width="60" height="80" as="geometry" />
        </mxCell>
        <mxCell id="uh_dUDV7xCnsIEdqAogF-53" value="Cmt, Cmt.MOD" style="endArrow=classic;startArrow=classic;html=1;entryX=0;entryY=0.5;entryDx=0;entryDy=0;" edge="1" parent="1" target="uh_dUDV7xCnsIEdqAogF-52">
          <mxGeometry width="50" height="50" relative="1" as="geometry">
            <mxPoint x="680" y="260" as="sourcePoint" />
            <mxPoint x="560" y="320" as="targetPoint" />
          </mxGeometry>
        </mxCell>
        <mxCell id="uh_dUDV7xCnsIEdqAogF-54" value="" style="endArrow=classic;startArrow=classic;html=1;entryX=0;entryY=1;entryDx=0;entryDy=0;" edge="1" parent="1" target="uh_dUDV7xCnsIEdqAogF-5">
          <mxGeometry width="50" height="50" relative="1" as="geometry">
            <mxPoint x="530" y="450" as="sourcePoint" />
            <mxPoint x="560" y="320" as="targetPoint" />
          </mxGeometry>
        </mxCell>
        <mxCell id="uh_dUDV7xCnsIEdqAogF-55" value="&lt;font style=&quot;font-size: 31px&quot;&gt;SESSION.IUSER&lt;/font&gt;" style="text;html=1;align=center;verticalAlign=middle;resizable=0;points=[];autosize=1;strokeColor=none;rotation=-90;fontSize=21;" vertex="1" parent="1">
          <mxGeometry x="400" y="365" width="260" height="30" as="geometry" />
        </mxCell>
        <mxCell id="uh_dUDV7xCnsIEdqAogF-87" value="MyUtils" style="swimlane;fontStyle=0;childLayout=stackLayout;horizontal=1;startSize=26;horizontalStack=0;resizeParent=1;resizeParentMax=0;resizeLast=0;collapsible=1;marginBottom=0;align=center;fontSize=14;rounded=0;sketch=0;html=1;" vertex="1" collapsed="1" parent="1">
          <mxGeometry x="110" y="20" width="80" height="26" as="geometry">
            <mxRectangle x="110" y="20" width="220" height="140" as="alternateBounds" />
          </mxGeometry>
        </mxCell>
        <mxCell id="uh_dUDV7xCnsIEdqAogF-88" value="stringToInt" style="text;strokeColor=none;fillColor=none;spacingLeft=4;spacingRight=4;overflow=hidden;rotatable=0;points=[[0,0.5],[1,0.5]];portConstraint=eastwest;fontSize=12;" vertex="1" parent="uh_dUDV7xCnsIEdqAogF-87">
          <mxGeometry y="26" width="80" height="30" as="geometry" />
        </mxCell>
        <mxCell id="uh_dUDV7xCnsIEdqAogF-89" value="OpenJSP" style="text;strokeColor=none;fillColor=none;spacingLeft=4;spacingRight=4;overflow=hidden;rotatable=0;points=[[0,0.5],[1,0.5]];portConstraint=eastwest;fontSize=12;" vertex="1" parent="uh_dUDV7xCnsIEdqAogF-87">
          <mxGeometry y="56" width="80" height="30" as="geometry" />
        </mxCell>
        <mxCell id="uh_dUDV7xCnsIEdqAogF-90" value="GetLoginUser&#xa;&#xa;GetLoginUserPK&#xa;&#xa;&#xa;" style="text;strokeColor=none;fillColor=none;spacingLeft=4;spacingRight=4;overflow=hidden;rotatable=0;points=[[0,0.5],[1,0.5]];portConstraint=eastwest;fontSize=12;" vertex="1" parent="uh_dUDV7xCnsIEdqAogF-87">
          <mxGeometry y="86" width="80" height="54" as="geometry" />
        </mxCell>
        <mxCell id="uh_dUDV7xCnsIEdqAogF-93" value="CmtDAO" style="swimlane;fontStyle=0;childLayout=stackLayout;horizontal=1;startSize=26;horizontalStack=0;resizeParent=1;resizeParentMax=0;resizeLast=0;collapsible=1;marginBottom=0;align=center;fontSize=14;rounded=0;sketch=0;html=1;" vertex="1" collapsed="1" parent="1">
          <mxGeometry x="110" y="100" width="80" height="26" as="geometry">
            <mxRectangle x="350" y="21" width="220" height="56" as="alternateBounds" />
          </mxGeometry>
        </mxCell>
        <mxCell id="uh_dUDV7xCnsIEdqAogF-94" value="CRUD" style="text;strokeColor=none;fillColor=none;spacingLeft=4;spacingRight=4;overflow=hidden;rotatable=0;points=[[0,0.5],[1,0.5]];portConstraint=eastwest;fontSize=12;" vertex="1" parent="uh_dUDV7xCnsIEdqAogF-93">
          <mxGeometry y="26" width="80" height="30" as="geometry" />
        </mxCell>
        <mxCell id="uh_dUDV7xCnsIEdqAogF-97" value="BoardDAO" style="swimlane;fontStyle=0;childLayout=stackLayout;horizontal=1;startSize=26;horizontalStack=0;resizeParent=1;resizeParentMax=0;resizeLast=0;collapsible=1;marginBottom=0;align=center;fontSize=14;rounded=0;sketch=0;html=1;" vertex="1" collapsed="1" parent="1">
          <mxGeometry x="110" y="60" width="80" height="26" as="geometry">
            <mxRectangle x="600" y="22" width="220" height="56" as="alternateBounds" />
          </mxGeometry>
        </mxCell>
        <mxCell id="uh_dUDV7xCnsIEdqAogF-98" value="CRUD" style="text;strokeColor=none;fillColor=none;spacingLeft=4;spacingRight=4;overflow=hidden;rotatable=0;points=[[0,0.5],[1,0.5]];portConstraint=eastwest;fontSize=12;" vertex="1" parent="uh_dUDV7xCnsIEdqAogF-97">
          <mxGeometry y="26" width="80" height="30" as="geometry" />
        </mxCell>
        <mxCell id="uh_dUDV7xCnsIEdqAogF-102" value="&lt;h1&gt;BoardVer5&lt;/h1&gt;&lt;p&gt;Login + Board + Cmt&lt;/p&gt;" style="text;html=1;strokeColor=none;fillColor=none;spacing=5;spacingTop=-20;whiteSpace=wrap;overflow=hidden;rounded=0;sketch=0;fontSize=21;startSize=30;" vertex="1" parent="1">
          <mxGeometry x="250" width="250" height="130" as="geometry" />
        </mxCell>
      </root>
    </mxGraphModel>
  </diagram>
  <diagram id="wY1WjU_qTL7yxQ66-AiM" name="Page-2">
    <mxGraphModel dx="1028" dy="793" grid="1" gridSize="10" guides="1" tooltips="1" connect="1" arrows="1" fold="1" page="1" pageScale="1" pageWidth="1600" pageHeight="900" math="0" shadow="0">
      <root>
        <mxCell id="ivSlNq0hijxADKezFqhq-0" />
        <mxCell id="ivSlNq0hijxADKezFqhq-1" parent="ivSlNq0hijxADKezFqhq-0" />
        <mxCell id="ivSlNq0hijxADKezFqhq-2" value="&lt;mxlibrary&gt;[]&lt;/mxlibrary&gt;" style="text;whiteSpace=wrap;html=1;fontSize=21;" vertex="1" parent="ivSlNq0hijxADKezFqhq-1">
          <mxGeometry x="40" y="40" width="40" height="40" as="geometry" />
        </mxCell>
      </root>
    </mxGraphModel>
  </diagram>
</mxfile>
